#!OML:ASF F:\VICON\USERDATA\INSTALL\Justin_Nancy\Justin_Nancy.ASF
:FULLY-SPECIFIED
:DEGREES
367
root -0.371268 17.6317 26.7804 0.175639 0.490609 -2.72872
lowerback 7.44647 0.0227905 0.364912
upperback 1.68698 0.143856 3.03551
thorax -2.43905 0.0745291 2.91806
lowerneck -16.5238 -3.54011 -9.41878
upperneck 18.489 -3.77217 6.13788
head 8.80817 -1.79722 3.17744
rclavicle 9.88954e-015 -2.34566e-014
rhumerus -31.1969 -13.8962 -78.1144
rradius 27.055
rwrist 9.23441
rhand -15.4888 12.3752
rfingers 7.12502
rthumb 10.6933 -17.3327
lclavicle 9.88954e-015 -2.34566e-014
lhumerus -30.1251 10.9045 84.3005
lradius 28.6871
lwrist -9.1533
lhand -15.5998 25.0377
lfingers 7.12502
lthumb 10.5862 414.751
rfemur -7.66855 4.03686 27.861
rtibia 16.3488
rfoot -4.11048 -5.56629
rtoes 5.72596
lfemur -19.0327 -0.230535 -16.9545
ltibia 67.4573
lfoot 4.39359 -1.18341
ltoes -4.14811
368
root -0.377455 17.6161 26.9141 0.182162 0.460633 -2.57769
lowerback 7.41388 0.152579 0.279322
upperback 1.76944 0.304751 2.95129
thorax -2.34345 0.15408 2.86329
lowerneck -16.9647 -3.57718 -9.54118
upperneck 18.9299 -3.79136 6.26302
head 9.04585 -1.79864 3.24203
rclavicle 1.36664e-014 1.15295e-014
rhumerus -30.538 -14.036 -78.1079
rradius 27.0716
rwrist 9.24525
rhand -15.3205 11.6845
rfingers 7.12502
rthumb 10.8556 -18.015
lclavicle 1.36664e-014 1.15295e-014
lhumerus -30.0783 10.8793 84.3718
lradius 28.5437
lwrist -9.12864
lhand -15.4488 25.512
lfingers 7.12502
lthumb 10.7319 415.218
rfemur -7.26965 3.9661 27.7849
rtibia 16.6692
rfoot -4.78872 -5.64868
rtoes 4.97974
lfemur -20.1668 -0.0638203 -17.1286
ltibia 67.5647
lfoot 3.20569 -0.410362
ltoes -4.031
369
root -0.380563 17.5991 27.0528 0.139651 0.317234 -2.68627
lowerback 7.4364 0.24361 0.465437
upperback 1.78645 0.438964 2.9147
thorax -2.34324 0.219893 2.7076
lowerneck -17.1046 -3.52134 -9.57825
upperneck 19.2635 -3.73241 6.39632
head 9.18424 -1.76031 3.30688
rclavicle 5.76476e-015 -1.47101e-014
rhumerus -30.1119 -13.8764 -78.2365
rradius 27.1634
rwrist 9.25581
rhand -15.2722 10.7048
rfingers 7.12502
rthumb 10.9022 -18.9922
lclavicle 5.76476e-015 -1.47101e-014
lhumerus -30.2799 10.7811 84.3357
lradius 28.5586
lwrist -9.11395
lhand -15.2202 25.9549
lfingers 7.12502
lthumb 10.9523 415.649
rfemur -6.8263 3.97428 27.9724
rtibia 17.0098
rfoot -5.59332 -5.73688
rtoes 4.55669
lfemur -21.1083 0.142078 -17.0262
ltibia 67.5244
lfoot 2.18095 0.290253
ltoes -3.42972
370
root -0.385504 17.5813 27.1862 0.209192 0.124002 -2.99328
lowerback 7.51195 0.364968 0.800117
upperback 1.66725 0.632862 2.96538
thorax -2.51397 0.315869 2.553
lowerneck -16.9753 -3.49966 -9.62659
upperneck 19.4844 -3.70989 6.39623
head 9.23616 -1.75759 3.32199
rclavicle -1.71452e-014 -3.45885e-014
rhumerus -29.9385 -13.6118 -78.2507
rradius 27.331
rwrist 9.07164
rhand -15.5246 10.6791
rfingers 7.12502
rthumb 10.6588 -19.0306
lclavicle -1.71452e-014 -3.45885e-014
lhumerus -30.7601 10.7763 84.2902
lradius 28.6749
lwrist -9.16219
lhand -14.9019 25.7844
lfingers 7.12502
lthumb 11.2594 415.462
rfemur -6.58824 4.13362 28.3765
rtibia 17.3507
rfoot -6.2308 -5.93299
rtoes 4.07228
lfemur -22.1751 0.436754 -16.6788
ltibia 67.3464
lfoot 1.02463 0.778728
ltoes -3.12579
371
root -0.390401 17.5634 27.3178 0.251653 0.0893256 -3.19499
lowerback 7.55538 0.443922 1.05113
upperback 1.64123 0.75985 2.97762
thorax -2.56693 0.377729 2.41179
lowerneck -16.9245 -3.48565 -9.61749
upperneck 19.5599 -3.68094 6.31237
head 9.24889 -1.75393 3.29634
rclavicle -1.16289e-014 5.1684e-015
rhumerus -29.5924 -13.486 -78.2666
rradius 27.4109
rwrist 8.81601
rhand -15.6176 11.1097
rfingers 7.12502
rthumb 10.569 -18.6046
lclavicle -1.16289e-014 5.1684e-015
lhumerus -30.9545 10.7079 84.2902
lradius 28.6684
lwrist -8.98443
lhand -15.0186 25.2168
lfingers 7.12502
lthumb 11.1468 414.901
rfemur -6.29342 4.07504 28.676
rtibia 17.5996
rfoot -6.77022 -6.07374
rtoes 3.93079
lfemur -23.2227 0.476134 -16.4242
ltibia 66.9778
lfoot -0.361096 1.29606
ltoes -1.7834
